<svg width="768" height="900" viewBox="0 0 768 900" fill="none" xmlns="http://www.w3.org/2000/svg">
<g clip-path="url(#clip0_2882_36455)">
<rect width="768" height="900" fill="#50C5A7"/>
<g clip-path="url(#clip1_2882_36455)">
<path d="M1184 0H-416V900H1184V0Z" fill="#EFF4F6"/>
<path d="M609 700V650H559L359 850V900H409L609 700Z" fill="#DFEAED"/>
<path d="M859 250V200H809L609 400V450H659L859 250Z" fill="#DFEAED"/>
<path d="M9 300H59V350L-41 450H-91V400L9 300Z" fill="#DFEAED"/>
<path d="M509 500H559V550L459 650H409V600L509 500Z" fill="#DFEAED"/>
<path d="M759 650H809V700L709 800H659V750L759 650Z" fill="#DFEAED"/>
<path d="M659 200H709V250L609 350H559V300L659 200Z" fill="#DFEAED"/>
<path d="M809 400H859V450L709 600H659V550L809 400Z" fill="#DFEAED"/>
<path d="M359 650H409V700L359 750H309V700L359 650Z" fill="#DFEAED"/>
<path d="M359 450H409V500L359 550H309V500L359 450Z" fill="#DFEAED"/>
<path d="M159 650H209V700L9 900H-41V850L159 650Z" fill="#DFEAED"/>
<path d="M709 900H809L1184 525V425L709 900Z" fill="#DFEAED"/>
<path d="M9 200H59L259 0H159L9 150V200Z" fill="#DFEAED"/>
<path d="M309 350H359L709 0H609L309 300V350Z" fill="#DFEAED"/>
<path d="M309 200H359L559 0H459L309 150V200Z" fill="#DFEAED"/>
</g>
</g>
<defs>
<clipPath id="clip0_2882_36455">
<rect width="768" height="900" fill="white"/>
</clipPath>
<clipPath id="clip1_2882_36455">
<rect width="1600" height="900" fill="white" transform="translate(-416)"/>
</clipPath>
</defs>
</svg>
