<svg width="1024" height="528" viewBox="0 0 1024 528" fill="none" xmlns="http://www.w3.org/2000/svg">
<g clip-path="url(#clip0_1032_112141)">
<rect width="1024" height="528" fill="#50C5A7"/>
<g clip-path="url(#clip1_1032_112141)">
<path d="M1440 0H0V809.812H1440V0Z" fill="#EFF4F6"/>
<path d="M1147.5 224.948V179.958H1102.5L922.5 359.916V404.906H967.5L1147.5 224.948Z" fill="#DFEAED"/>
<path d="M247.5 134.969H292.5V179.958L112.5 359.916H67.5V314.927L247.5 134.969Z" fill="#DFEAED"/>
<path d="M382.5 269.937H427.5V314.927L337.5 404.906H292.5V359.916L382.5 269.937Z" fill="#DFEAED"/>
<path d="M832.5 449.896H877.5V494.885L787.5 584.864H742.5V539.875L832.5 449.896Z" fill="#DFEAED"/>
<path d="M967.5 179.958H1012.5V224.948L922.5 314.927H877.5V269.937L967.5 179.958Z" fill="#DFEAED"/>
<path d="M1102.5 359.917H1147.5V404.906L1012.5 539.875H967.5V494.885L1102.5 359.917Z" fill="#DFEAED"/>
<path d="M697.5 404.906H742.5V449.896L697.5 494.885H652.5V449.896L697.5 404.906Z" fill="#DFEAED"/>
<path d="M292.5 449.896H337.5V494.885L247.5 584.864H202.5V539.875L292.5 449.896Z" fill="#DFEAED"/>
<path d="M202.5 404.906H247.5V449.896L67.5 629.854H22.5V584.864L202.5 404.906Z" fill="#DFEAED"/>
<path d="M1012.5 809.812H1102.5L1440 472.39V382.411L1012.5 809.812Z" fill="#DFEAED"/>
<path d="M67.5 179.958H112.5L292.5 0H202.5L67.5 134.969V179.958Z" fill="#DFEAED"/>
<path d="M382.5 179.958H427.5L607.5 0H517.5L382.5 134.969V179.958Z" fill="#DFEAED"/>
<path d="M652.5 314.927H697.5L1012.5 0H922.5L652.5 269.937V314.927Z" fill="#DFEAED"/>
<path d="M652.5 179.958H697.5L877.5 0H787.5L652.5 134.969V179.958Z" fill="#DFEAED"/>
<path d="M67.5 359.917H22.5L0 382.411V472.39L67.5 404.906V359.917Z" fill="#DFEAED"/>
</g>
</g>
<defs>
<clipPath id="clip0_1032_112141">
<rect width="1024" height="528" fill="white"/>
</clipPath>
<clipPath id="clip1_1032_112141">
<rect width="1440" height="809.812" fill="white"/>
</clipPath>
</defs>
</svg>
