<svg width="390" height="1092" viewBox="0 0 390 1092" fill="none" xmlns="http://www.w3.org/2000/svg">
<g clip-path="url(#clip0_1032_112155)">
<g clip-path="url(#clip1_1032_112155)">
<path d="M1956 0H0V1100H1956V0Z" fill="#EFF4F6"/>
<path d="M336.187 183.333H397.312V244.444L152.812 488.889H91.6875V427.778L336.187 183.333Z" fill="#DFEAED"/>
<path d="M397.312 611.111H458.437V672.222L336.187 794.444H275.062V733.333L397.312 611.111Z" fill="#DFEAED"/>
<path d="M275.062 550H336.188V611.111L91.6875 855.556H30.5625V794.444L275.062 550Z" fill="#DFEAED"/>
<path d="M91.6875 244.444H152.812L397.312 0H275.062L91.6875 183.333V244.444Z" fill="#DFEAED"/>
<path d="M91.6875 488.889H30.5625L0 519.444V641.667L91.6875 550V488.889Z" fill="#DFEAED"/>
<path d="M152.812 916.667H91.6875L0 1008.33V1100H30.5625L152.812 977.778V916.667Z" fill="#DFEAED"/>
</g>
</g>
<defs>
<clipPath id="clip0_1032_112155">
<rect width="390" height="1092" fill="white"/>
</clipPath>
<clipPath id="clip1_1032_112155">
<rect width="1956" height="1100" fill="white"/>
</clipPath>
</defs>
</svg>
