<svg width="30" height="24" viewBox="0 0 30 24" fill="none" xmlns="http://www.w3.org/2000/svg">
<path d="M7.19795 11.6015C6.85115 11.6015 6.59105 11.6015 6.33095 11.69C6.93785 8.94465 8.67185 6.37638 11.8797 3.36531L8.84524 0C3.03636 4.42804 0.0885634 9.65314 0.00186345 14.9668C-0.0848362 20.4576 2.86296 24 6.93785 24C10.4925 24 13.2669 21.1661 13.2669 17.6236C13.2669 14.1697 10.6659 11.6015 7.19795 11.6015ZM23.931 11.6015C23.6709 11.6015 23.4108 11.6015 23.1507 11.69C23.7576 8.94465 25.4049 6.28782 28.6128 3.36531L25.5783 0C19.8561 4.42804 16.8216 9.65314 16.8216 14.9668C16.7349 20.4576 19.6827 24 23.7576 24C27.3123 24 30 21.1661 30 17.6236C30 14.1697 27.4857 11.6015 23.931 11.6015Z" fill="#FFB500"/>
</svg>
