<svg width="30" height="24" viewBox="0 0 30 24" fill="none" xmlns="http://www.w3.org/2000/svg">
<path d="M22.8021 12.3985C23.1489 12.3985 23.409 12.3985 23.6691 12.31C23.0622 15.0553 21.3282 17.6236 18.1203 20.6347L21.1548 24C26.9636 19.572 29.9114 14.3469 29.9981 9.03321C30.0848 3.54243 27.137 1.65706e-06 23.0622 1.30082e-06C19.5075 9.90062e-07 16.7331 2.83395 16.7331 6.37638C16.7331 9.83026 19.3341 12.3985 22.8021 12.3985ZM6.06899 12.3985C6.32909 12.3985 6.58919 12.3985 6.84929 12.31C6.24239 15.0553 4.59509 17.7122 1.3872 20.6347L4.42169 24C10.1439 19.572 13.1784 14.3469 13.1784 9.03321C13.2651 3.54243 10.3173 1.86631e-07 6.24239 -1.69608e-07C2.6877 -4.80369e-07 1.8504e-06 2.83394 1.54071e-06 6.37638C1.23876e-06 9.83026 2.5143 12.3985 6.06899 12.3985Z" fill="#FFB500"/>
</svg>
