<svg width="96" height="80" viewBox="0 0 96 80" fill="none" xmlns="http://www.w3.org/2000/svg">
<g clip-path="url(#clip0_412_46669)">
<path d="M12.3787 11L9.66016 13.7188V59.6099H86.3413V13.7188L83.6228 11H12.3787Z" fill="#1F2951"/>
<path d="M1 65.586L4.32784 68.3165H91.6721L95 65.586V59.6094H1V65.586Z" fill="#9490A5"/>
<path d="M83 18H13V56H83V18Z" fill="white"/>
<path d="M82.5 17.6328H13V16.8008L14.3124 15.5H81.1993L82.5 16.8008V17.6328Z" fill="#005DA9"/>
<path d="M56.3406 38H18V39.1133H56.3406V38Z" fill="#B0CAD3"/>
<path d="M56.3406 40.0391H18V41.1524H56.3406V40.0391Z" fill="#B0CAD3"/>
<path d="M56.3523 42.0898H18V43.2031H56.3523V42.0898Z" fill="#B0CAD3"/>
<path d="M56.3523 44.1875H18V45.3008H56.3523V44.1875Z" fill="#B0CAD3"/>
<path d="M33.9479 46.2852H18V47.3985H33.9479V46.2852Z" fill="#B0CAD3"/>
<path d="M68.0833 51.9102L65.5406 49.3672L67.2982 47.6094L63.6188 46.6133L59.9277 45.6289L61.908 53.0001L63.6657 51.2423L66.2085 53.7852L68.0833 51.9102Z" fill="#1F2951"/>
<path d="M21.1055 32.6641H25.5465V28.2227L21.1055 32.6641Z" fill="#1F2951"/>
<path d="M20.0037 22L18 24.0039H26.6594V32.6642L28.6515 30.6603V22H20.0037Z" fill="#E73446"/>
<path d="M22.441 25.1055H18V29.5469L22.441 25.1055Z" fill="#1F2951"/>
<path d="M25.5462 25.1055H23.9995L18 31.1055V32.6641H19.5585L25.5462 26.6641V25.1055Z" fill="#E73446"/>
</g>
<g clip-path="url(#clip1_412_46669)">
<path d="M75.7088 55.6333C75.107 56.4197 74.4484 57.1724 73.7217 57.8914C72.995 58.6104 72.2343 59.262 71.4395 59.8462L73.3357 61.711L77.5936 57.487L75.7088 55.6221V55.6333Z" fill="#A89597"/>
<path d="M75.7085 55.6328C76.2535 54.9138 76.7418 54.1724 77.1846 53.4085C78.2065 51.6334 78.9446 49.7349 79.3987 47.7913C79.7053 46.4994 79.8756 45.1962 79.9324 43.8818C79.9551 43.219 79.9551 42.5449 79.921 41.8821C79.7053 37.7816 78.2633 33.726 75.629 30.2996C75.1181 29.6255 74.5503 28.9852 73.9486 28.3673C73.8691 28.2886 73.8009 28.21 73.7215 28.1313C73.2559 27.6707 72.7677 27.2326 72.2567 26.8169C71.7344 26.3788 71.1894 25.9744 70.6217 25.6036C66.5908 22.8962 61.8332 21.6941 57.1665 22.0199C53.658 22.2671 50.2062 23.368 47.1518 25.3228C46.5841 25.6823 46.0277 26.0755 45.4827 26.5024C44.8468 27.0079 44.2223 27.5472 43.6319 28.1313C43.3253 28.4347 43.0301 28.7492 42.7462 29.0638C42.2921 29.5693 41.8606 30.0973 41.4745 30.6366C40.8046 31.5466 40.2142 32.5127 39.7032 33.5013C39.3626 34.1642 39.0674 34.827 38.8062 35.5123C37.2961 39.4443 37.0122 43.7357 37.966 47.8026C38.4202 49.7461 39.1582 51.6447 40.1801 53.4197C41.0998 55.0262 42.258 56.5316 43.6319 57.9022C51.2167 65.4067 63.105 66.0583 71.4392 59.8569C72.234 59.2615 72.9948 58.6099 73.7215 57.9022C74.4482 57.1832 75.1067 56.4305 75.7085 55.6441" fill="#EDE9DA"/>
<path d="M77.6955 57.4083L77.6047 57.4982L73.3467 61.7223L73.2559 61.8121C72.4043 62.6547 72.4043 64.0253 73.2559 64.8679L88.5391 79.9892H92.2293L96.0104 76.2482V72.4622L80.7953 57.4083C79.9437 56.5657 78.5585 56.5657 77.7069 57.4083" fill="#555675"/>
<path d="M74.8682 42.2641C74.8001 40.9272 74.573 39.6016 74.1756 38.3096C74.1188 38.1411 74.0734 37.9838 74.0166 37.8153C74.0166 37.8153 74.0166 37.7816 74.0053 37.7704C73.9598 37.6243 73.9031 37.4895 73.8463 37.3435C73.8236 37.2986 73.8122 37.2424 73.7895 37.1974C73.7328 37.0626 73.676 36.9278 73.6192 36.7818L73.5738 36.6807C73.4716 36.4335 73.3581 36.1976 73.2332 35.9504C73.1991 35.8718 73.165 35.8044 73.1196 35.7258C73.0742 35.6246 73.0174 35.5235 72.9606 35.4337C72.9152 35.3438 72.8585 35.2427 72.8017 35.1528C72.7563 35.0629 72.6995 34.9731 72.6541 34.8944C72.5859 34.7821 72.5178 34.681 72.461 34.5686C72.4156 34.5012 72.3702 34.4226 72.3248 34.3552C72.2112 34.1754 72.0863 33.9957 71.9614 33.8272C71.7003 33.4452 71.4164 33.0745 71.1099 32.7262H71.0985C70.9168 32.4903 70.7238 32.2881 70.5308 32.0746C70.4854 32.0297 70.4513 31.9847 70.4059 31.951C70.3264 31.8612 70.2469 31.7713 70.1561 31.6927C70.0539 31.5915 69.963 31.5017 69.8609 31.4118C63.5137 25.4352 53.4762 25.525 47.2426 31.6927C46.5273 32.4004 45.9028 33.1531 45.3464 33.9507C44.5289 35.1303 43.8816 36.3886 43.4161 37.6918C42.8711 39.2196 42.5759 40.8149 42.5077 42.4214C42.4623 43.7583 42.5759 45.1064 42.8597 46.4095C43.3026 48.443 44.1542 50.4089 45.4032 52.184C45.9368 52.9479 46.55 53.6781 47.2426 54.3634C47.5265 54.6443 47.8217 54.9027 48.1169 55.161C54.4868 60.6097 64.1041 60.34 70.1561 54.3634C71.6322 52.903 72.7563 51.2403 73.5397 49.454C74.1302 48.1059 74.5276 46.7016 74.732 45.2749C74.8682 44.2863 74.9136 43.2752 74.8682 42.2753" fill="#BCE0F8"/>
</g>
<defs>
<clipPath id="clip0_412_46669">
<rect width="94" height="57.3171" fill="white" transform="translate(1 11)"/>
</clipPath>
<clipPath id="clip1_412_46669">
<rect width="71" height="75" fill="white" transform="translate(25 5)"/>
</clipPath>
</defs>
</svg>
